:SAMPLES-PER-SECOND 30
:FULLY-SPECIFIED
:DEGREES
229
root  -82.7303 40.925 -0.261231 -171.138 72.0325 -174.943
RightUpLeg  -5.92021 -5.73746 0.572984
RightLeg  8.5178 -3.51827 0.408486
RightFoot  -6.68569 -0.0153035 -0.739191
RightToes  -4.65663e-010 0 -3.6325e-017
Spine  5.28095 0.155532 2.27118
Spine1  2.92857 0.167698 0.243579
HEad  -24.9088 8.5908 -5.1904
LeftShoulder1  -0.817323 5.49408 -34.8802
LeftArm  -1.31889 0.761395 -41.6857
LeftForeArm  28.198 -11.7464 -7.93696
LeftHand  -0.0241375 9.26994 0.721648
RightShoulder  -1.05858 -6.34923 30.6514
RightArm  15.2628 -18.4596 42.9309
RightForeArm  15.7373 10.6298 6.56737
RightHand  -0.103488 6.33239 -1.48097
LeftUpLeg  3.87179 10.0132 3.95637
LeftLeg  5.31111 21.7683 -1.06295
LeftFoot  -8.86838 0.156512 -4.83307
LeftToes  8.74931e-010 -1.05764e-010 1.2659e-011
230
root  -82.4754 40.8244 -0.128089 -169.965 73.7945 -173.315
RightUpLeg  -5.79448 -5.2741 1.30342
RightLeg  9.43152 -2.19454 0.294115
RightFoot  -6.98852 0.0100844 -1.52001
RightToes  -4.65663e-010 0 -3.6325e-017
Spine  5.25115 -0.212077 3.06822
Spine1  3.4595 -0.186308 0.573796
HEad  -24.6693 5.05123 -4.16514
LeftShoulder1  -0.858028 5.61145 -34.5158
LeftArm  5.15597 0.765416 -41.7102
LeftForeArm  22.0208 -16.3561 -6.68624
LeftHand  -0.0349983 8.34766 0.403955
RightShoulder  -1.10385 -6.44311 31.0172
RightArm  15.1453 -18.6371 43.2011
RightForeArm  19.2582 10.586 6.47922
RightHand  -0.0940352 3.26571 -1.03488
LeftUpLeg  3.66072 12.4465 4.76266
LeftLeg  8.15707 20.6796 0.33874
LeftFoot  -9.92256 0.137659 -6.30639
LeftToes  8.74931e-010 -1.05764e-010 1.2659e-011
231
root  -82.137 40.7056 0.0459886 -168.474 75.208 -171.098
RightUpLeg  -5.19379 -5.24625 2.03955
RightLeg  10.4246 -0.984112 0.49923
RightFoot  -7.58081 0.0337227 -2.5697
RightToes  -4.65663e-010 0 -3.6325e-017
Spine  5.50181 -0.3866 3.69248
Spine1  3.55577 -0.414393 1.37641
HEad  -23.8791 2.74361 -4.04968
LeftShoulder1  -0.933222 5.77375 -34.9146
LeftArm  9.32476 0.548187 -41.2658
LeftForeArm  17.8264 -20.0641 -5.02148
LeftHand  -0.0273127 8.2802 0.652484
RightShoulder  -1.04079 -6.25739 31.2362
RightArm  14.8159 -18.632 43.6398
RightForeArm  27.0732 9.64999 6.51508
RightHand  0.110512 -0.884959 2.72163
LeftUpLeg  2.89779 18.6288 6.27387
LeftLeg  12.9091 15.0771 2.47542
LeftFoot  -10.6634 0.111554 -8.18618
LeftToes  8.74931e-010 -1.05764e-010 1.2659e-011
232
root  -81.7867 40.5475 0.229078 -166.664 77.2323 -168.648
RightUpLeg  -4.93768 -5.40115 2.55355
RightLeg  12.0266 1.16509 0.894357
RightFoot  -8.80081 0.00184808 -2.80402
RightToes  -4.65663e-010 0 -3.6325e-017
Spine  5.55581 -0.0920334 4.82123
Spine1  3.80433 0.0715867 1.34292
HEad  -22.9093 1.21262 -4.05471
LeftShoulder1  -0.921992 5.74866 -34.8579
LeftArm  9.12666 0.554884 -41.3114
LeftForeArm  17.5596 -22.9257 -4.15837
LeftHand  -0.0261054 7.20122 0.789547
RightShoulder  -1.06628 -6.31189 31.3766
RightArm  14.1045 -17.6898 43.7894
RightForeArm  23.2068 8.5775 6.66597
RightHand  0.0117637 1.06233 0.170474
LeftUpLeg  1.11659 22.6985 7.37938
LeftLeg  19.5727 11.291 4.97076
LeftFoot  -10.87 0.112789 -11.7611
LeftToes  8.74931e-010 -1.05764e-010 1.2659e-011
233
root  -81.4999 40.33 0.411792 -164.597 78.7811 -166.319
RightUpLeg  -5.53517 -5.91064 2.91426
RightLeg  14.5187 3.09231 1.50273
RightFoot  -10.2965 -0.0370583 -3.55293
RightToes  -4.65663e-010 0 -3.6325e-017
Spine  5.98201 -0.0168188 6.52908
Spine1  3.34249 0.595636 0.60607
HEad  -22.2912 0.109856 -3.76993
LeftShoulder1  -0.818742 5.52702 -34.2959
LeftArm  6.78673 1.13422 -41.2394
LeftForeArm  18.7363 -25.78 -4.50614
LeftHand  -0.0126248 7.04417 1.67018
RightShoulder  -1.24482 -6.71989 32.1804
RightArm  13.9503 -15.6851 43.8015
RightForeArm  21.4147 7.56978 6.82813
RightHand  -0.0441716 2.35908 -0.857306
LeftUpLeg  -2.45875 20.8311 8.10391
LeftLeg  28.4887 11.5207 7.01373
LeftFoot  -9.82755 0.305746 -16.3938
LeftToes  8.74931e-010 -1.05764e-010 1.2659e-011
234
root  -81.1653 40.1293 0.603856 -162.567 79.5201 -163.394
RightUpLeg  -4.89444 -6.17327 3.49367
RightLeg  16.1226 3.93627 1.82404
RightFoot  -11.5593 -0.0855012 -4.08033
RightToes  -4.65663e-010 0 -3.6325e-017
Spine  6.83376 -0.360746 7.63419
Spine1  3.0329 0.500334 0.741897
HEad  -21.3823 -0.0879952 -3.82908
LeftShoulder1  -0.823568 5.54781 -34.0899
LeftArm  4.69147 1.98227 -40.9116
LeftForeArm  19.7869 -28.8599 -5.17122
LeftHand  -0.00824254 6.62507 2.30224
RightShoulder  -1.09552 -6.37419 31.6141
RightArm  14.3816 -13.964 45.0942
RightForeArm  25.3153 7.30917 7.07086
RightHand  0.132885 1.85973 1.88456
LeftUpLeg  -6.51371 18.2448 9.28922
LeftLeg  38.3397 10.0945 8.8257
LeftFoot  -4.92851 0.82656 -16.1273
LeftToes  8.74931e-010 -1.05764e-010 1.2659e-011
235
root  -80.8083 40.0012 0.734923 -161.411 80.2023 -161.465
RightUpLeg  -3.9853 -6.59528 3.65308
RightLeg  17.1517 4.85152 2.29175
RightFoot  -12.6583 -0.137333 -4.47927
RightToes  -4.65663e-010 0 -3.6325e-017
Spine  7.83749 -0.440821 9.05315
Spine1  2.26408 0.808527 0.060909
HEad  -20.039 -0.566737 -4.06061
LeftShoulder1  -0.641404 5.11555 -33.6515
LeftArm  3.8274 3.157 -40.9145
LeftForeArm  20.0223 -31.4443 -5.76664
LeftHand  -0.00140389 6.68409 2.81758
RightShoulder  -1.08748 -6.3584 31.5205
RightArm  15.5386 -11.8006 45.4105
RightForeArm  25.3619 7.66729 7.50009
RightHand  0.13655 0.974622 1.66505
LeftUpLeg  -11.2956 14.6908 9.54065
LeftLeg  47.1012 7.80839 9.25074
LeftFoot  2.74956 0.860869 -6.70033
LeftToes  8.74931e-010 -1.05764e-010 1.2659e-011
236
root  -80.3786 39.866 0.776324 -160.928 81.1019 -159.934
RightUpLeg  -2.76153 -7.03384 3.60592
RightLeg  18.48 5.92119 2.49515
RightFoot  -13.8364 -0.201264 -4.96077
RightToes  -4.65663e-010 0 -3.6325e-017
Spine  8.67461 -0.397185 10.1442
Spine1  2.3299 1.20064 -0.180741
HEad  -19.7804 -0.505713 -4.01765
LeftShoulder1  -0.64728 5.11651 -33.9637
LeftArm  3.59005 3.11956 -41.1268
LeftForeArm  19.9045 -31.7661 -5.85598
LeftHand  -0.0147482 5.94604 2.96874
RightShoulder  -1.22447 -6.67352 32.0971
RightArm  17.2936 -8.38054 44.5133
RightForeArm  22.3313 8.56728 7.84886
RightHand  0.438156 5.45903 4.66072
LeftUpLeg  -14.3911 11.21 9.62756
LeftLeg  52.3731 3.55665 5.36649
LeftFoot  3.7963 0.642434 -5.00718
LeftToes  8.74931e-010 -1.05764e-010 1.2659e-011
237
root  -79.9361 39.7963 0.803704 -163.186 82.9109 -162.777
RightUpLeg  -3.22712 -7.26831 2.78686
RightLeg  19.6617 7.5891 2.65527
RightFoot  -14.9874 -0.262522 -5.06775
RightToes  -4.65663e-010 0 -3.6325e-017
Spine  7.61218 0.133023 10.0031
Spine1  2.96346 1.69277 -0.350588
HEad  -20.6343 0.799006 -4.50248
LeftShoulder1  -0.760278 5.39874 -33.9412
LeftArm  4.19873 3.61843 -41.4287
LeftForeArm  19.1549 -31.8385 -5.91721
LeftHand  -0.0155544 5.92064 2.94467
RightShoulder  -1.14455 -6.50586 31.588
RightArm  18.0846 -4.6966 45.2781
RightForeArm  18.6096 8.54945 8.34468
RightHand  -0.135149 5.62885 -1.86562
LeftUpLeg  -18.3267 8.93341 8.17613
LeftLeg  54.6404 -0.899404 -0.829839
LeftFoot  1.21932 0.725456 -6.65014
LeftToes  8.74931e-010 -1.05764e-010 1.2659e-011
238
root  -79.3742 39.7998 0.810011 -169.487 84.0524 -168.939
RightUpLeg  -2.20381 -7.58794 1.83341
RightLeg  19.8536 8.90509 2.65103
RightFoot  -15.6718 -0.301638 -5.1733
RightToes  -4.65663e-010 0 -3.6325e-017
Spine  7.85643 0.41132 9.99715
Spine1  1.86537 2.03577 -1.00915
HEad  -18.9884 0.149573 -5.13865
LeftShoulder1  -0.65008 5.14562 -33.4363
LeftArm  4.8867 5.07722 -41.9644
LeftForeArm  19.5113 -30.7659 -5.63441
LeftHand  -0.019487 6.01063 2.03941
RightShoulder  -1.13815 -6.49743 31.4634
RightArm  17.9351 -2.47557 45.181
RightForeArm  18.6456 9.83326 7.83245
RightHand  0.0556454 6.28667 0.189278
LeftUpLeg  -20.7428 6.13034 6.70376
LeftLeg  53.9498 -2.65821 -3.4629
LeftFoot  -0.408708 0.676114 -7.02103
LeftToes  8.74931e-010 -1.05764e-010 1.2659e-011
239
root  -78.7873 39.8739 0.838322 178.884 85.5374 179.452
RightUpLeg  -0.972133 -7.78568 0.600722
RightLeg  19.3642 10.4815 2.54482
RightFoot  -15.9905 -0.329122 -5.44244
RightToes  -4.65663e-010 0 -3.6325e-017
Spine  7.35209 0.916531 9.80181
Spine1  2.28085 2.61546 -2.29315
HEad  -17.0689 -1.40292 -4.34935
LeftShoulder1  -0.587554 4.99555 -33.2428
LeftArm  6.46843 5.69439 -42.0729
LeftForeArm  20.3336 -29.4181 -5.26761
LeftHand  -0.0209597 6.28663 1.47515
RightShoulder  -1.03134 -6.28669 30.5169
RightArm  16.8351 -0.107526 46.7051
RightForeArm  17.1465 11.3199 7.08603
RightHand  -0.0501207 4.09003 -0.849033
LeftUpLeg  -22.3336 4.44915 5.04518
LeftLeg  50.3196 -2.16915 -2.38569
LeftFoot  -1.39524 0.538761 -6.08405
LeftToes  8.74931e-010 -1.05764e-010 1.2659e-011
240
root  -78.1876 39.9436 0.861654 163.91 86.3953 164.648
RightUpLeg  0.65897 -7.94274 -0.429122
RightLeg  18.423 11.707 2.38743
RightFoot  -16.157 -0.347756 -5.67144
RightToes  -4.65663e-010 0 -3.6325e-017
Spine  7.44074 1.22171 9.79061
Spine1  2.24045 3.01901 -3.70561
HEad  -18.1796 -3.3783 -1.59812
LeftShoulder1  -0.510295 4.7948 -33.3646
LeftArm  8.68995 6.31852 -41.7183
LeftForeArm  20.8009 -27.5379 -4.81149
LeftHand  -0.0268579 6.67129 0.803789
RightShoulder  -1.07624 -6.43347 30.1982
RightArm  16.1102 2.24633 47.0927
RightForeArm  12.2726 12.7737 6.4935
RightHand  -0.158097 4.79666 -2.1128
LeftUpLeg  -23.1403 3.27895 3.82312
LeftLeg  44.545 -1.10812 -0.802021
LeftFoot  -2.37815 0.428906 -5.29853
LeftToes  8.74931e-010 -1.05764e-010 1.2659e-011
241
root  -77.5852 40.0302 0.866614 142.539 86.7746 143.215
RightUpLeg  2.24982 -8.45031 -1.81371
RightLeg  17.0692 13.261 2.48783
RightFoot  -16.1651 -0.353792 -5.80639
RightToes  -4.65663e-010 0 -3.6325e-017
Spine  7.67272 1.49525 9.35922
Spine1  1.75394 3.29437 -4.90378
HEad  -17.8986 -2.46675 -1.49096
LeftShoulder1  -0.47817 4.7228 -33.0669
LeftArm  10.6355 7.23132 -41.9795
LeftForeArm  20.2427 -25.0252 -4.24404
LeftHand  -0.0459267 6.91136 -0.560308
RightShoulder  -1.06431 -6.40411 30.1342
RightArm  17.1289 4.09261 46.9064
RightForeArm  8.52325 15.4503 5.75897
RightHand  -0.127064 6.05672 -1.61932
LeftUpLeg  -23.4194 2.47416 2.43429
LeftLeg  36.6525 0.217661 0.530887
LeftFoot  -2.37389 0.430775 -5.31347
LeftToes  8.74931e-010 -1.05764e-010 1.2659e-011
242
root  -76.9502 40.0551 0.891756 124.082 86.8775 124.674
RightUpLeg  3.61302 -7.89538 -2.28876
RightLeg  16.0742 13.5488 1.76349
RightFoot  -16.6587 -0.370214 -5.54178
RightToes  -4.65663e-010 0 -3.6325e-017
Spine  7.53289 1.71829 8.30542
Spine1  2.10314 3.31105 -4.89832
HEad  -18.9169 -2.54332 -2.12071
LeftShoulder1  -0.541412 4.86353 -33.6706
LeftArm  12.0033 8.27546 -41.5739
LeftForeArm  19.0508 -22.5009 -4.24388
LeftHand  -0.0610793 7.33895 -1.20489
RightShoulder  -0.954629 -6.18134 29.1062
RightArm  18.1721 5.76679 47.4271
RightForeArm  6.72558 18.5179 5.00695
RightHand  -0.0938349 6.49566 -1.2554
LeftUpLeg  -23.1815 2.83046 1.29879
LeftLeg  27.8661 0.641961 0.717997
LeftFoot  -1.89061 0.505116 -5.95824
LeftToes  8.74931e-010 -1.05764e-010 1.2659e-011
243
root  -76.2813 40.0673 0.891219 110.093 86.9383 110.711
RightUpLeg  5.42903 -7.68758 -2.74783
RightLeg  14.5345 14.1287 1.31735
RightFoot  -16.8815 -0.379851 -5.48934
RightToes  -4.65663e-010 0 -3.6325e-017
Spine  7.71291 1.94178 7.6587
Spine1  2.3065 3.48626 -5.2313
HEad  -19.9786 -3.52103 -2.65982
LeftShoulder1  -0.503249 4.7623 -33.8306
LeftArm  8.70471 9.01194 -41.682
LeftForeArm  22.4037 -18.2856 -5.73833
LeftHand  -0.0632238 8.05323 -0.776183
RightShoulder  -1.01274 -6.37235 28.7543
RightArm  18.5883 7.26385 47.4521
RightForeArm  5.94071 21.3185 4.54847
RightHand  -0.174183 6.23424 -2.08232
LeftUpLeg  -22.5144 3.87132 0.262981
LeftLeg  19.2809 -0.491723 0.176095
LeftFoot  -1.31703 0.679498 -7.65965
LeftToes  8.74931e-010 -1.05764e-010 1.2659e-011
